<svg width="109" height="271" viewBox="0 0 109 271" fill="none" xmlns="http://www.w3.org/2000/svg">
    <rect x="2" y="2" width="105" height="267" rx="36" stroke="#7378D0" stroke-width="4"/>
    <rect x="39.5" y="235.5" width="30" height="17" rx="8.5" stroke="#7378D0"/>
    <path d="M45.3651 243.353C45.3651 241.598 45.6508 240.231 46.2221 239.251C46.7935 238.262 47.7934 237.767 49.2217 237.767C50.6399 237.767 51.6347 238.262 52.206 239.251C52.7774 240.231 53.0631 241.598 53.0631 243.353C53.0631 245.138 52.7774 246.526 52.206 247.516C51.6347 248.505 50.6399 249 49.2217 249C47.7934 249 46.7935 248.505 46.2221 247.516C45.6508 246.526 45.3651 245.138 45.3651 243.353ZM51.6857 243.353C51.6857 242.465 51.6245 241.715 51.5021 241.103C51.3898 240.481 51.1501 239.981 50.7828 239.603C50.4257 239.226 49.9053 239.037 49.2217 239.037C48.528 239.037 47.9974 239.226 47.6301 239.603C47.273 239.981 47.0332 240.481 46.9108 241.103C46.7986 241.715 46.7425 242.465 46.7425 243.353C46.7425 244.271 46.7986 245.041 46.9108 245.664C47.0332 246.286 47.273 246.786 47.6301 247.164C47.9974 247.541 48.528 247.73 49.2217 247.73C49.9053 247.73 50.4257 247.541 50.7828 247.164C51.1501 246.786 51.3898 246.286 51.5021 245.664C51.6245 245.041 51.6857 244.271 51.6857 243.353ZM57.5614 247.883C58.8572 246.842 59.8723 245.99 60.6069 245.327C61.3415 244.654 61.9588 243.955 62.4587 243.23C62.9689 242.496 63.2239 241.776 63.2239 241.072C63.2239 240.409 63.0607 239.889 62.7342 239.511C62.4179 239.124 61.9027 238.93 61.1885 238.93C60.4947 238.93 59.954 239.149 59.5662 239.588C59.1887 240.016 58.9847 240.593 58.9541 241.317H57.6073C57.6481 240.175 57.995 239.292 58.648 238.67C59.301 238.047 60.1427 237.736 61.1732 237.736C62.2241 237.736 63.0556 238.027 63.6678 238.609C64.2901 239.19 64.6013 239.991 64.6013 241.011C64.6013 241.858 64.3462 242.684 63.8361 243.491C63.3362 244.286 62.7648 244.99 62.122 245.602C61.4793 246.204 60.6579 246.908 59.6581 247.714H64.9227V248.878H57.5614V247.883Z" fill="#7378D0"/>
    <path d="M43.8064 138.503V147.097L48 148.574V152.088L27.4452 144.735V140.837L48 133.483V137.027L43.8064 138.503ZM41.0598 139.448L31.5207 142.786L41.0598 146.152V139.448ZM23.0744 139.744L26.2934 146.271H23.8127L20.2097 139.744H23.0744ZM34.0901 125.147C33.2632 124.655 32.6233 124.005 32.1705 123.198C31.6979 122.371 31.4617 121.396 31.4617 120.274H34.9465V121.13C34.9465 122.449 35.2812 123.454 35.9506 124.143C36.6201 124.812 37.7817 125.147 39.4355 125.147H48V128.514H31.7275V125.147H34.0901ZM39.465 100.493C40.0754 100.493 40.6267 100.533 41.1189 100.611V113.045C42.4183 112.946 43.4618 112.464 44.2493 111.598C45.0369 110.731 45.4307 109.668 45.4307 108.408C45.4307 106.597 44.6726 105.317 43.1566 104.569V100.936C44.653 101.428 45.8835 102.324 46.8482 103.624C47.7933 104.903 48.2658 106.498 48.2658 108.408C48.2658 109.963 47.9212 111.361 47.2321 112.602C46.5234 113.822 45.5389 114.787 44.2789 115.496C42.9991 116.185 41.5225 116.529 39.849 116.529C38.1754 116.529 36.7087 116.195 35.4486 115.525C34.1688 114.836 33.1844 113.881 32.4953 112.661C31.8062 111.42 31.4617 110.003 31.4617 108.408C31.4617 106.872 31.7964 105.504 32.4658 104.303C33.1352 103.102 34.0802 102.167 35.3009 101.497C36.5019 100.828 37.89 100.493 39.465 100.493ZM38.4019 104.008C37.1615 104.027 36.1672 104.47 35.4191 105.337C34.6709 106.203 34.2968 107.276 34.2968 108.556C34.2968 109.717 34.6709 110.712 35.4191 111.538C36.1475 112.365 37.1418 112.858 38.4019 113.015V104.008ZM39.7899 96.5303C38.1558 96.5303 36.7087 96.1956 35.4486 95.5262C34.1885 94.8371 33.214 93.9117 32.5249 92.7501C31.8161 91.5688 31.4617 90.2694 31.4617 88.8518C31.4617 87.572 31.7176 86.4596 32.2295 85.5146C32.7217 84.5498 33.3419 83.782 34.0901 83.211H31.7275V79.8148H48V83.211H45.5783C46.3462 83.782 46.986 84.5597 47.4979 85.5441C48.0098 86.5285 48.2658 87.6508 48.2658 88.9108C48.2658 90.3087 47.9114 91.5885 47.2026 92.7501C46.4741 93.9117 45.47 94.8371 44.1903 95.5262C42.8908 96.1956 41.424 96.5303 39.7899 96.5303ZM39.849 83.211C38.7267 83.211 37.7521 83.4473 36.9252 83.9198C36.0983 84.3727 35.4683 84.9732 35.0351 85.7213C34.602 86.4695 34.3854 87.2767 34.3854 88.143C34.3854 89.0093 34.602 89.8165 35.0351 90.5647C35.4486 91.3128 36.0688 91.9232 36.8957 92.3957C37.7029 92.8485 38.6677 93.075 39.7899 93.075C40.9121 93.075 41.8966 92.8485 42.7432 92.3957C43.5898 91.9232 44.2395 91.3128 44.6923 90.5647C45.1255 89.7968 45.3421 88.9896 45.3421 88.143C45.3421 87.2767 45.1255 86.4695 44.6923 85.7213C44.2592 84.9732 43.6292 84.3727 42.8022 83.9198C41.9556 83.4473 40.9712 83.211 39.849 83.211ZM39.7899 65.2994C38.1558 65.2994 36.7087 64.9647 35.4486 64.2953C34.1885 63.6062 33.214 62.6809 32.5249 61.5193C31.8161 60.3379 31.4617 59.0287 31.4617 57.5914C31.4617 56.5282 31.6979 55.4847 32.1705 54.4609C32.6233 53.4174 33.2336 52.5905 34.0015 51.9802H26.1458V48.5839H48V51.9802H45.5488C46.3363 52.5315 46.986 53.2993 47.4979 54.2837C48.0098 55.2485 48.2658 56.3609 48.2658 57.6209C48.2658 59.0385 47.9114 60.3379 47.2026 61.5193C46.4741 62.6809 45.47 63.6062 44.1903 64.2953C42.8908 64.9647 41.424 65.2994 39.7899 65.2994ZM39.849 51.9802C38.7267 51.9802 37.7521 52.2164 36.9252 52.689C36.0983 53.1418 35.4683 53.7423 35.0351 54.4905C34.602 55.2386 34.3854 56.0459 34.3854 56.9121C34.3854 57.7784 34.602 58.5857 35.0351 59.3338C35.4486 60.082 36.0688 60.6923 36.8957 61.1649C37.7029 61.6177 38.6677 61.8441 39.7899 61.8441C40.9121 61.8441 41.8966 61.6177 42.7432 61.1649C43.5898 60.6923 44.2395 60.082 44.6923 59.3338C45.1255 58.566 45.3421 57.7588 45.3421 56.9121C45.3421 56.0459 45.1255 55.2386 44.6923 54.4905C44.2592 53.7423 43.6292 53.1418 42.8022 52.689C41.9556 52.2164 40.9712 51.9802 39.849 51.9802ZM48.2658 35.3316C48.2658 36.8673 47.9212 38.2553 47.2321 39.4957C46.5234 40.7361 45.5389 41.7106 44.2789 42.4194C42.9991 43.1282 41.5225 43.4826 39.849 43.4826C38.1951 43.4826 36.7283 43.1184 35.4486 42.3899C34.1688 41.6614 33.1844 40.6671 32.4953 39.4071C31.8062 38.147 31.4617 36.7393 31.4617 35.1839C31.4617 33.6285 31.8062 32.2208 32.4953 30.9607C33.1844 29.7007 34.1688 28.7064 35.4486 27.9779C36.7283 27.2494 38.1951 26.8852 39.849 26.8852C41.5028 26.8852 42.9696 27.2593 44.2493 28.0075C45.5291 28.7556 46.5234 29.7794 47.2321 31.0789C47.9212 32.3586 48.2658 33.7762 48.2658 35.3316ZM45.3421 35.3316C45.3421 34.4653 45.1353 33.658 44.7219 32.9099C44.3084 32.142 43.6882 31.5218 42.8613 31.0493C42.0344 30.5768 41.0303 30.3405 39.849 30.3405C38.6677 30.3405 37.6734 30.567 36.8662 31.0198C36.0392 31.4726 35.4191 32.0731 35.0056 32.8213C34.5921 33.5694 34.3854 34.3767 34.3854 35.243C34.3854 36.1093 34.5921 36.9165 35.0056 37.6647C35.4191 38.3931 36.0392 38.9739 36.8662 39.4071C37.6734 39.8402 38.6677 40.0568 39.849 40.0568C41.6012 40.0568 42.9597 39.6138 43.9245 38.7278C44.8695 37.8222 45.3421 36.6901 45.3421 35.3316ZM74.465 173.642C75.0754 173.642 75.6267 173.681 76.1189 173.76V186.193C77.4183 186.095 78.4618 185.613 79.2493 184.746C80.0369 183.88 80.4307 182.817 80.4307 181.557C80.4307 179.745 79.6726 178.466 78.1566 177.718V174.085C79.653 174.577 80.8835 175.473 81.8482 176.773C82.7933 178.052 83.2658 179.647 83.2658 181.557C83.2658 183.112 82.9212 184.51 82.2321 185.75C81.5234 186.971 80.5389 187.936 79.2789 188.645C77.9991 189.334 76.5225 189.678 74.849 189.678C73.1754 189.678 71.7087 189.344 70.4486 188.674C69.1688 187.985 68.1844 187.03 67.4953 185.81C66.8062 184.569 66.4617 183.152 66.4617 181.557C66.4617 180.021 66.7964 178.653 67.4658 177.452C68.1352 176.251 69.0802 175.316 70.3009 174.646C71.5019 173.977 72.89 173.642 74.465 173.642ZM73.4019 177.156C72.1615 177.176 71.1672 177.619 70.4191 178.485C69.6709 179.352 69.2968 180.425 69.2968 181.704C69.2968 182.866 69.6709 183.86 70.4191 184.687C71.1475 185.514 72.1418 186.006 73.4019 186.164V177.156ZM83.2658 162.65C83.2658 163.93 83.0394 165.082 82.5865 166.106C82.114 167.11 81.484 167.907 80.6964 168.498C79.8892 169.088 78.9934 169.404 78.009 169.443V165.958C78.6981 165.899 79.2789 165.574 79.7514 164.983C80.2042 164.373 80.4307 163.615 80.4307 162.709C80.4307 161.764 80.2535 161.036 79.8991 160.524C79.525 159.992 79.0525 159.727 78.4815 159.727C77.8712 159.727 77.4183 160.022 77.123 160.613C76.8277 161.184 76.5028 162.099 76.1484 163.359C75.8137 164.58 75.4888 165.574 75.1738 166.342C74.8588 167.11 74.3764 167.779 73.7267 168.35C73.077 168.901 72.2206 169.177 71.1574 169.177C70.2911 169.177 69.5035 168.921 68.7948 168.409C68.0663 167.897 67.4953 167.169 67.0819 166.224C66.6684 165.259 66.4617 164.157 66.4617 162.916C66.4617 161.065 66.9342 159.579 67.8792 158.457C68.8046 157.315 70.0745 156.704 71.689 156.626V159.992C70.9605 160.051 70.3797 160.347 69.9465 160.878C69.5134 161.41 69.2968 162.129 69.2968 163.034C69.2968 163.92 69.4642 164.6 69.7989 165.072C70.1336 165.545 70.5766 165.781 71.1278 165.781C71.561 165.781 71.9252 165.623 72.2206 165.308C72.5159 164.993 72.7521 164.609 72.9293 164.157C73.0868 163.704 73.2936 163.034 73.5495 162.148C73.8645 160.967 74.1894 160.002 74.5241 159.254C74.8391 158.486 75.3116 157.827 75.9417 157.275C76.5717 156.724 77.4085 156.439 78.452 156.419C79.3773 156.419 80.2042 156.675 80.9327 157.187C81.6612 157.699 82.2321 158.427 82.6456 159.372C83.0591 160.298 83.2658 161.39 83.2658 162.65ZM69.474 147.081H78.4815C79.0918 147.081 79.5348 146.943 79.8105 146.668C80.0664 146.373 80.1944 145.88 80.1944 145.191V143.124H83V145.782C83 147.298 82.6456 148.459 81.9368 149.267C81.228 150.074 80.0763 150.478 78.4815 150.478H69.474V152.397H66.7275V150.478H62.6815V147.081H66.7275V143.124H69.474V147.081ZM66.7275 123.512H83V126.879H81.0804C81.7498 127.41 82.2814 128.109 82.6751 128.976C83.0492 129.822 83.2363 130.728 83.2363 131.693C83.2363 132.972 82.9705 134.124 82.4389 135.148C81.9073 136.152 81.1197 136.95 80.0763 137.54C79.0328 138.111 77.7727 138.397 76.2961 138.397H66.7275V135.059H75.794C77.251 135.059 78.3732 134.695 79.1607 133.967C79.9286 133.238 80.3125 132.244 80.3125 130.984C80.3125 129.724 79.9286 128.73 79.1607 128.001C78.3732 127.253 77.251 126.879 75.794 126.879H66.7275V123.512ZM74.7899 118.42C73.1558 118.42 71.7087 118.086 70.4486 117.416C69.1885 116.727 68.214 115.802 67.5249 114.64C66.8161 113.459 66.4617 112.149 66.4617 110.712C66.4617 109.649 66.6979 108.606 67.1705 107.582C67.6233 106.538 68.2336 105.711 69.0015 105.101H61.1458V101.705H83V105.101H80.5488C81.3363 105.652 81.986 106.42 82.4979 107.405C83.0098 108.369 83.2658 109.482 83.2658 110.742C83.2658 112.159 82.9114 113.459 82.2026 114.64C81.4741 115.802 80.47 116.727 79.1903 117.416C77.8908 118.086 76.424 118.42 74.7899 118.42ZM74.849 105.101C73.7267 105.101 72.7521 105.337 71.9252 105.81C71.0983 106.263 70.4683 106.863 70.0351 107.611C69.602 108.359 69.3854 109.167 69.3854 110.033C69.3854 110.899 69.602 111.706 70.0351 112.455C70.4486 113.203 71.0688 113.813 71.8957 114.286C72.7029 114.739 73.6677 114.965 74.7899 114.965C75.9121 114.965 76.8966 114.739 77.7432 114.286C78.5898 113.813 79.2395 113.203 79.6923 112.455C80.1255 111.687 80.3421 110.88 80.3421 110.033C80.3421 109.167 80.1255 108.359 79.6923 107.611C79.2592 106.863 78.6292 106.263 77.8022 105.81C76.9556 105.337 75.9712 105.101 74.849 105.101ZM74.7899 96.633C73.1558 96.633 71.7087 96.2982 70.4486 95.6288C69.1885 94.9397 68.214 94.0144 67.5249 92.8528C66.8161 91.6715 66.4617 90.372 66.4617 88.9544C66.4617 87.6747 66.7176 86.5623 67.2295 85.6172C67.7217 84.6525 68.3419 83.8847 69.0901 83.3137H66.7275V79.9174H83V83.3137H80.5783C81.3462 83.8847 81.986 84.6624 82.4979 85.6468C83.0098 86.6312 83.2658 87.7534 83.2658 89.0135C83.2658 90.4114 82.9114 91.6911 82.2026 92.8528C81.4741 94.0144 80.47 94.9397 79.1903 95.6288C77.8908 96.2982 76.424 96.633 74.7899 96.633ZM74.849 83.3137C73.7267 83.3137 72.7521 83.55 71.9252 84.0225C71.0983 84.4753 70.4683 85.0758 70.0351 85.824C69.602 86.5721 69.3854 87.3794 69.3854 88.2457C69.3854 89.112 69.602 89.9192 70.0351 90.6673C70.4486 91.4155 71.0688 92.0258 71.8957 92.4984C72.7029 92.9512 73.6677 93.1776 74.7899 93.1776C75.9121 93.1776 76.8966 92.9512 77.7432 92.4984C78.5898 92.0258 79.2395 91.4155 79.6923 90.6673C80.1255 89.8995 80.3421 89.0923 80.3421 88.2457C80.3421 87.3794 80.1255 86.5721 79.6923 85.824C79.2592 85.0758 78.6292 84.4753 77.8022 84.0225C76.9556 83.55 75.9712 83.3137 74.849 83.3137ZM66.4617 65.5133C66.4617 64.2336 66.7275 63.0916 67.2591 62.0875C67.7906 61.0637 68.5782 60.2663 69.6217 59.6954C70.6652 59.1244 71.9252 58.8389 73.4019 58.8389H83V62.1761H73.9039C72.447 62.1761 71.3346 62.5403 70.5667 63.2688C69.7792 63.9973 69.3854 64.9916 69.3854 66.2516C69.3854 67.5117 69.7792 68.5158 70.5667 69.264C71.3346 69.9924 72.447 70.3567 73.9039 70.3567H83V73.7234H66.7275V70.3567H68.588C67.9186 69.8054 67.3969 69.1065 67.0228 68.2598C66.6487 67.3936 66.4617 66.478 66.4617 65.5133ZM69.474 48.8446H78.4815C79.0918 48.8446 79.5348 48.7068 79.8105 48.4312C80.0664 48.1358 80.1944 47.6436 80.1944 46.9545V44.8872H83V47.5452C83 49.0612 82.6456 50.2228 81.9368 51.03C81.228 51.8373 80.0763 52.2409 78.4815 52.2409H69.474V54.1605H66.7275V52.2409H62.6815V48.8446H66.7275V44.8872H69.474V48.8446ZM74.465 25.0982C75.0754 25.0982 75.6267 25.1376 76.1189 25.2164V37.6496C77.4183 37.5512 78.4618 37.0688 79.2493 36.2025C80.0369 35.3363 80.4307 34.2731 80.4307 33.013C80.4307 31.2017 79.6726 29.9219 78.1566 29.1738V25.5412C79.653 26.0334 80.8835 26.9293 81.8482 28.2287C82.7933 29.5085 83.2658 31.1032 83.2658 33.013C83.2658 34.5684 82.9212 35.9663 82.2321 37.2067C81.5234 38.4273 80.5389 39.3921 79.2789 40.1009C77.9991 40.79 76.5225 41.1345 74.849 41.1345C73.1754 41.1345 71.7087 40.7998 70.4486 40.1304C69.1688 39.4413 68.1844 38.4864 67.4953 37.2657C66.8062 36.0253 66.4617 34.6078 66.4617 33.013C66.4617 31.4773 66.7964 30.109 67.4658 28.908C68.1352 27.707 69.0802 26.7718 70.3009 26.1024C71.5019 25.4329 72.89 25.0982 74.465 25.0982ZM73.4019 28.6126C72.1615 28.6323 71.1672 29.0753 70.4191 29.9416C69.6709 30.8079 69.2968 31.8809 69.2968 33.1607C69.2968 34.3223 69.6709 35.3166 70.4191 36.1435C71.1475 36.9704 72.1418 37.4626 73.4019 37.6201V28.6126Z" fill="#7479D1"/>
    </svg>
    