<svg width="109" height="271" viewBox="0 0 109 271" fill="none" xmlns="http://www.w3.org/2000/svg">
    <rect x="2" y="2" width="105" height="267" rx="36" fill="#BDC0FB" stroke="#7378D0" stroke-width="4"/>
    <rect x="39.5" y="235.5" width="30" height="17" rx="8.5" stroke="#7378D0"/>
    <path d="M47.3155 243.353C47.3155 241.598 47.6012 240.231 48.1725 239.251C48.7439 238.262 49.7437 237.767 51.1721 237.767C52.5903 237.767 53.5851 238.262 54.1564 239.251C54.7278 240.231 55.0135 241.598 55.0135 243.353C55.0135 245.138 54.7278 246.526 54.1564 247.516C53.5851 248.505 52.5903 249 51.1721 249C49.7437 249 48.7439 248.505 48.1725 247.516C47.6012 246.526 47.3155 245.138 47.3155 243.353ZM53.6361 243.353C53.6361 242.465 53.5749 241.715 53.4524 241.103C53.3402 240.481 53.1004 239.981 52.7331 239.603C52.376 239.226 51.8557 239.037 51.1721 239.037C50.4783 239.037 49.9478 239.226 49.5805 239.603C49.2234 239.981 48.9836 240.481 48.8612 241.103C48.749 241.715 48.6928 242.465 48.6928 243.353C48.6928 244.271 48.749 245.041 48.8612 245.664C48.9836 246.286 49.2234 246.786 49.5805 247.164C49.9478 247.541 50.4783 247.73 51.1721 247.73C51.8557 247.73 52.376 247.541 52.7331 247.164C53.1004 246.786 53.3402 246.286 53.4524 245.664C53.5749 245.041 53.6361 244.271 53.6361 243.353ZM59.3128 239.205V237.935H62.19V249H60.782V239.205H59.3128Z" fill="#7378D0"/>
    <path d="M43.8064 138.503V147.097L48 148.574V152.088L27.4452 144.735V140.837L48 133.483V137.027L43.8064 138.503ZM41.0598 139.448L31.5207 142.786L41.0598 146.152V139.448ZM23.0744 139.744L26.2934 146.271H23.8127L20.2097 139.744H23.0744ZM34.0901 125.147C33.2632 124.655 32.6233 124.005 32.1705 123.198C31.6979 122.371 31.4617 121.396 31.4617 120.274H34.9465V121.13C34.9465 122.449 35.2812 123.454 35.9506 124.143C36.6201 124.812 37.7817 125.147 39.4355 125.147H48V128.514H31.7275V125.147H34.0901ZM39.465 100.493C40.0754 100.493 40.6267 100.533 41.1189 100.611V113.045C42.4183 112.946 43.4618 112.464 44.2493 111.598C45.0369 110.731 45.4307 109.668 45.4307 108.408C45.4307 106.597 44.6726 105.317 43.1566 104.569V100.936C44.653 101.428 45.8835 102.324 46.8482 103.624C47.7933 104.903 48.2658 106.498 48.2658 108.408C48.2658 109.963 47.9212 111.361 47.2321 112.602C46.5234 113.822 45.5389 114.787 44.2789 115.496C42.9991 116.185 41.5225 116.529 39.849 116.529C38.1754 116.529 36.7087 116.195 35.4486 115.525C34.1688 114.836 33.1844 113.881 32.4953 112.661C31.8062 111.42 31.4617 110.003 31.4617 108.408C31.4617 106.872 31.7964 105.504 32.4658 104.303C33.1352 103.102 34.0802 102.167 35.3009 101.497C36.5019 100.828 37.89 100.493 39.465 100.493ZM38.4019 104.008C37.1615 104.027 36.1672 104.47 35.4191 105.337C34.6709 106.203 34.2968 107.276 34.2968 108.556C34.2968 109.717 34.6709 110.712 35.4191 111.538C36.1475 112.365 37.1418 112.858 38.4019 113.015V104.008ZM39.7899 96.5303C38.1558 96.5303 36.7087 96.1956 35.4486 95.5262C34.1885 94.8371 33.214 93.9117 32.5249 92.7501C31.8161 91.5688 31.4617 90.2694 31.4617 88.8518C31.4617 87.572 31.7176 86.4596 32.2295 85.5146C32.7217 84.5498 33.3419 83.782 34.0901 83.211H31.7275V79.8148H48V83.211H45.5783C46.3462 83.782 46.986 84.5597 47.4979 85.5441C48.0098 86.5285 48.2658 87.6508 48.2658 88.9108C48.2658 90.3087 47.9114 91.5885 47.2026 92.7501C46.4741 93.9117 45.47 94.8371 44.1903 95.5262C42.8908 96.1956 41.424 96.5303 39.7899 96.5303ZM39.849 83.211C38.7267 83.211 37.7521 83.4473 36.9252 83.9198C36.0983 84.3727 35.4683 84.9732 35.0351 85.7213C34.602 86.4695 34.3854 87.2767 34.3854 88.143C34.3854 89.0093 34.602 89.8165 35.0351 90.5647C35.4486 91.3128 36.0688 91.9232 36.8957 92.3957C37.7029 92.8485 38.6677 93.075 39.7899 93.075C40.9121 93.075 41.8966 92.8485 42.7432 92.3957C43.5898 91.9232 44.2395 91.3128 44.6923 90.5647C45.1255 89.7968 45.3421 88.9896 45.3421 88.143C45.3421 87.2767 45.1255 86.4695 44.6923 85.7213C44.2592 84.9732 43.6292 84.3727 42.8022 83.9198C41.9556 83.4473 40.9712 83.211 39.849 83.211ZM39.7899 65.2994C38.1558 65.2994 36.7087 64.9647 35.4486 64.2953C34.1885 63.6062 33.214 62.6809 32.5249 61.5193C31.8161 60.3379 31.4617 59.0287 31.4617 57.5914C31.4617 56.5282 31.6979 55.4847 32.1705 54.4609C32.6233 53.4174 33.2336 52.5905 34.0015 51.9802H26.1458V48.5839H48V51.9802H45.5488C46.3363 52.5315 46.986 53.2993 47.4979 54.2837C48.0098 55.2485 48.2658 56.3609 48.2658 57.6209C48.2658 59.0385 47.9114 60.3379 47.2026 61.5193C46.4741 62.6809 45.47 63.6062 44.1903 64.2953C42.8908 64.9647 41.424 65.2994 39.7899 65.2994ZM39.849 51.9802C38.7267 51.9802 37.7521 52.2164 36.9252 52.689C36.0983 53.1418 35.4683 53.7423 35.0351 54.4905C34.602 55.2386 34.3854 56.0459 34.3854 56.9121C34.3854 57.7784 34.602 58.5857 35.0351 59.3338C35.4486 60.082 36.0688 60.6923 36.8957 61.1649C37.7029 61.6177 38.6677 61.8441 39.7899 61.8441C40.9121 61.8441 41.8966 61.6177 42.7432 61.1649C43.5898 60.6923 44.2395 60.082 44.6923 59.3338C45.1255 58.566 45.3421 57.7588 45.3421 56.9121C45.3421 56.0459 45.1255 55.2386 44.6923 54.4905C44.2592 53.7423 43.6292 53.1418 42.8022 52.689C41.9556 52.2164 40.9712 51.9802 39.849 51.9802ZM48.2658 35.3316C48.2658 36.8673 47.9212 38.2553 47.2321 39.4957C46.5234 40.7361 45.5389 41.7106 44.2789 42.4194C42.9991 43.1282 41.5225 43.4826 39.849 43.4826C38.1951 43.4826 36.7283 43.1184 35.4486 42.3899C34.1688 41.6614 33.1844 40.6671 32.4953 39.4071C31.8062 38.147 31.4617 36.7393 31.4617 35.1839C31.4617 33.6285 31.8062 32.2208 32.4953 30.9607C33.1844 29.7007 34.1688 28.7064 35.4486 27.9779C36.7283 27.2494 38.1951 26.8852 39.849 26.8852C41.5028 26.8852 42.9696 27.2593 44.2493 28.0075C45.5291 28.7556 46.5234 29.7794 47.2321 31.0789C47.9212 32.3586 48.2658 33.7762 48.2658 35.3316ZM45.3421 35.3316C45.3421 34.4653 45.1353 33.658 44.7219 32.9099C44.3084 32.142 43.6882 31.5218 42.8613 31.0493C42.0344 30.5768 41.0303 30.3405 39.849 30.3405C38.6677 30.3405 37.6734 30.567 36.8662 31.0198C36.0392 31.4726 35.4191 32.0731 35.0056 32.8213C34.5921 33.5694 34.3854 34.3767 34.3854 35.243C34.3854 36.1093 34.5921 36.9165 35.0056 37.6647C35.4191 38.3931 36.0392 38.9739 36.8662 39.4071C37.6734 39.8402 38.6677 40.0568 39.849 40.0568C41.6012 40.0568 42.9597 39.6138 43.9245 38.7278C44.8695 37.8222 45.3421 36.6901 45.3421 35.3316ZM69.1196 172.528C68.3715 171.957 67.7414 171.18 67.2295 170.195C66.7176 169.211 66.4617 168.098 66.4617 166.858C66.4617 165.441 66.8161 164.151 67.5249 162.989C68.214 161.808 69.1885 160.883 70.4486 160.213C71.7087 159.544 73.1558 159.209 74.7899 159.209C76.424 159.209 77.8908 159.544 79.1903 160.213C80.47 160.883 81.4741 161.808 82.2026 162.989C82.9114 164.151 83.2658 165.441 83.2658 166.858C83.2658 168.098 83.0197 169.201 82.5275 170.166C82.0156 171.13 81.3855 171.918 80.6374 172.528H90.7376V175.895H66.7275V172.528H69.1196ZM74.7899 162.635C73.6677 162.635 72.7029 162.871 71.8957 163.344C71.0688 163.797 70.4486 164.407 70.0351 165.175C69.602 165.923 69.3854 166.73 69.3854 167.596C69.3854 168.443 69.602 169.25 70.0351 170.018C70.4683 170.766 71.0983 171.377 71.9252 171.849C72.7521 172.302 73.7267 172.528 74.849 172.528C75.9712 172.528 76.9556 172.302 77.8022 171.849C78.6292 171.377 79.2592 170.766 79.6923 170.018C80.1255 169.25 80.3421 168.443 80.3421 167.596C80.3421 166.73 80.1255 165.923 79.6923 165.175C79.2395 164.407 78.5898 163.797 77.7432 163.344C76.8966 162.871 75.9121 162.635 74.7899 162.635ZM69.0901 150.741C68.2632 150.249 67.6233 149.599 67.1705 148.792C66.6979 147.965 66.4617 146.99 66.4617 145.868H69.9465V146.725C69.9465 148.044 70.2812 149.048 70.9506 149.737C71.6201 150.406 72.7817 150.741 74.4355 150.741H83V154.108H66.7275V150.741H69.0901ZM83.2658 133.943C83.2658 135.479 82.9212 136.867 82.2321 138.107C81.5234 139.348 80.5389 140.322 79.2789 141.031C77.9991 141.74 76.5225 142.094 74.849 142.094C73.1951 142.094 71.7283 141.73 70.4486 141.001C69.1688 140.273 68.1844 139.279 67.4953 138.019C66.8062 136.759 66.4617 135.351 66.4617 133.796C66.4617 132.24 66.8062 130.832 67.4953 129.572C68.1844 128.312 69.1688 127.318 70.4486 126.59C71.7283 125.861 73.1951 125.497 74.849 125.497C76.5028 125.497 77.9696 125.871 79.2493 126.619C80.5291 127.367 81.5234 128.391 82.2321 129.69C82.9212 130.97 83.2658 132.388 83.2658 133.943ZM80.3421 133.943C80.3421 133.077 80.1353 132.27 79.7219 131.521C79.3084 130.754 78.6882 130.133 77.8613 129.661C77.0344 129.188 76.0303 128.952 74.849 128.952C73.6677 128.952 72.6734 129.179 71.8662 129.631C71.0392 130.084 70.4191 130.685 70.0056 131.433C69.5921 132.181 69.3854 132.988 69.3854 133.855C69.3854 134.721 69.5921 135.528 70.0056 136.276C70.4191 137.005 71.0392 137.586 71.8662 138.019C72.6734 138.452 73.6677 138.668 74.849 138.668C76.6012 138.668 77.9597 138.225 78.9245 137.339C79.8695 136.434 80.3421 135.302 80.3421 133.943ZM69.474 113.575V116.587H83V119.983H69.474V121.903H66.7275V119.983H65.5757C63.7053 119.983 62.3468 119.491 61.5002 118.507C60.6339 117.502 60.2007 115.937 60.2007 113.811H63.0063C63.0063 114.835 63.2032 115.553 63.597 115.967C63.9711 116.38 64.6306 116.587 65.5757 116.587H66.7275V113.575H69.474ZM74.465 93.9049C75.0754 93.9049 75.6267 93.9442 76.1189 94.023V106.456C77.4183 106.358 78.4618 105.875 79.2493 105.009C80.0369 104.143 80.4307 103.08 80.4307 101.82C80.4307 100.008 79.6726 98.7286 78.1566 97.9804V94.3479C79.653 94.8401 80.8835 95.7359 81.8482 97.0353C82.7933 98.3151 83.2658 99.9099 83.2658 101.82C83.2658 103.375 82.9212 104.773 82.2321 106.013C81.5234 107.234 80.5389 108.199 79.2789 108.907C77.9991 109.597 76.5225 109.941 74.849 109.941C73.1754 109.941 71.7087 109.606 70.4486 108.937C69.1688 108.248 68.1844 107.293 67.4953 106.072C66.8062 104.832 66.4617 103.414 66.4617 101.82C66.4617 100.284 66.7964 98.9156 67.4658 97.7146C68.1352 96.5136 69.0802 95.5784 70.3009 94.909C71.5019 94.2396 72.89 93.9049 74.465 93.9049ZM73.4019 97.4193C72.1615 97.439 71.1672 97.8819 70.4191 98.7482C69.6709 99.6145 69.2968 100.688 69.2968 101.967C69.2968 103.129 69.6709 104.123 70.4191 104.95C71.1475 105.777 72.1418 106.269 73.4019 106.427V97.4193ZM83.2658 82.9132C83.2658 84.1929 83.0394 85.3447 82.5865 86.3685C82.114 87.3726 81.484 88.17 80.6964 88.7606C79.8892 89.3513 78.9934 89.6663 78.009 89.7057V86.2208C78.6981 86.1618 79.2789 85.8369 79.7514 85.2462C80.2042 84.6359 80.4307 83.8779 80.4307 82.9722C80.4307 82.0272 80.2535 81.2987 79.8991 80.7868C79.525 80.2552 79.0525 79.9894 78.4815 79.9894C77.8712 79.9894 77.4183 80.2847 77.123 80.8754C76.8277 81.4464 76.5028 82.3619 76.1484 83.6219C75.8137 84.8426 75.4888 85.8369 75.1738 86.6048C74.8588 87.3726 74.3764 88.042 73.7267 88.613C73.077 89.1643 72.2206 89.4399 71.1574 89.4399C70.2911 89.4399 69.5035 89.1839 68.7948 88.672C68.0663 88.1601 67.4953 87.4317 67.0819 86.4866C66.6684 85.5219 66.4617 84.4193 66.4617 83.179C66.4617 81.3282 66.9342 79.8418 67.8792 78.7195C68.8046 77.5776 70.0745 76.9672 71.689 76.8885V80.2552C70.9605 80.3143 70.3797 80.6096 69.9465 81.1412C69.5134 81.6728 69.2968 82.3914 69.2968 83.2971C69.2968 84.1831 69.4642 84.8623 69.7989 85.3348C70.1336 85.8074 70.5766 86.0436 71.1278 86.0436C71.561 86.0436 71.9252 85.8861 72.2206 85.5711C72.5159 85.2561 72.7521 84.8722 72.9293 84.4193C73.0868 83.9665 73.2936 83.2971 73.5495 82.4111C73.8645 81.2298 74.1894 80.2651 74.5241 79.5169C74.8391 78.749 75.3116 78.0895 75.9417 77.5382C76.5717 76.9869 77.4085 76.7014 78.452 76.6818C79.3773 76.6818 80.2042 76.9377 80.9327 77.4496C81.6612 77.9615 82.2321 78.69 82.6456 79.635C83.0591 80.5604 83.2658 81.6531 83.2658 82.9132ZM83.2658 65.3654C83.2658 66.6452 83.0394 67.797 82.5865 68.8208C82.114 69.8249 81.484 70.6222 80.6964 71.2129C79.8892 71.8036 78.9934 72.1186 78.009 72.158V68.6731C78.6981 68.614 79.2789 68.2892 79.7514 67.6985C80.2042 67.0882 80.4307 66.3302 80.4307 65.4245C80.4307 64.4794 80.2535 63.751 79.8991 63.2391C79.525 62.7075 79.0525 62.4417 78.4815 62.4417C77.8712 62.4417 77.4183 62.737 77.123 63.3277C76.8277 63.8986 76.5028 64.8141 76.1484 66.0742C75.8137 67.2949 75.4888 68.2892 75.1738 69.057C74.8588 69.8249 74.3764 70.4943 73.7267 71.0652C73.077 71.6165 72.2206 71.8922 71.1574 71.8922C70.2911 71.8922 69.5035 71.6362 68.7948 71.1243C68.0663 70.6124 67.4953 69.8839 67.0819 68.9389C66.6684 67.9741 66.4617 66.8716 66.4617 65.6312C66.4617 63.7805 66.9342 62.294 67.8792 61.1718C68.8046 60.0298 70.0745 59.4195 71.689 59.3407V62.7075C70.9605 62.7665 70.3797 63.0619 69.9465 63.5935C69.5134 64.1251 69.2968 64.8437 69.2968 65.7493C69.2968 66.6353 69.4642 67.3146 69.7989 67.7871C70.1336 68.2596 70.5766 68.4959 71.1278 68.4959C71.561 68.4959 71.9252 68.3384 72.2206 68.0234C72.5159 67.7084 72.7521 67.3244 72.9293 66.8716C73.0868 66.4188 73.2936 65.7494 73.5495 64.8634C73.8645 63.6821 74.1894 62.7173 74.5241 61.9692C74.8391 61.2013 75.3116 60.5417 75.9417 59.9905C76.5717 59.4392 77.4085 59.1537 78.452 59.134C79.3773 59.134 80.2042 59.39 80.9327 59.9019C81.6612 60.4138 82.2321 61.1422 82.6456 62.0873C83.0591 63.0127 83.2658 64.1054 83.2658 65.3654ZM83.2658 46.6659C83.2658 48.2016 82.9212 49.5896 82.2321 50.83C81.5234 52.0704 80.5389 53.045 79.2789 53.7538C77.9991 54.4625 76.5225 54.8169 74.849 54.8169C73.1951 54.8169 71.7283 54.4527 70.4486 53.7242C69.1688 52.9958 68.1844 52.0015 67.4953 50.7414C66.8062 49.4814 66.4617 48.0736 66.4617 46.5182C66.4617 44.9628 66.8062 43.5551 67.4953 42.2951C68.1844 41.035 69.1688 40.0407 70.4486 39.3123C71.7283 38.5838 73.1951 38.2195 74.849 38.2195C76.5028 38.2195 77.9696 38.5936 79.2493 39.3418C80.5291 40.09 81.5234 41.1138 82.2321 42.4132C82.9212 43.6929 83.2658 45.1105 83.2658 46.6659ZM80.3421 46.6659C80.3421 45.7996 80.1353 44.9924 79.7219 44.2442C79.3084 43.4764 78.6882 42.8562 77.8613 42.3837C77.0344 41.9111 76.0303 41.6749 74.849 41.6749C73.6677 41.6749 72.6734 41.9013 71.8662 42.3541C71.0392 42.807 70.4191 43.4075 70.0056 44.1556C69.5921 44.9038 69.3854 45.711 69.3854 46.5773C69.3854 47.4436 69.5921 48.2508 70.0056 48.999C70.4191 49.7275 71.0392 50.3083 71.8662 50.7414C72.6734 51.1746 73.6677 51.3911 74.849 51.3911C76.6012 51.3911 77.9597 50.9481 78.9245 50.0622C79.8695 49.1565 80.3421 48.0244 80.3421 46.6659ZM69.0901 29.7527C68.2632 29.2604 67.6233 28.6107 67.1705 27.8035C66.6979 26.9766 66.4617 26.002 66.4617 24.8798H69.9465V25.7362C69.9465 27.0553 70.2812 28.0594 70.9506 28.7485C71.6201 29.4179 72.7817 29.7527 74.4355 29.7527H83V33.1194H66.7275V29.7527H69.0901Z" fill="#7479D1"/>
    </svg>
    