<svg width="27" height="28" viewBox="0 0 27 28" fill="none" xmlns="http://www.w3.org/2000/svg">
<path d="M10.8463 0.505292C10.196 0.662635 9.58235 1.20809 9.36731 1.81649C9.32011 1.93712 9.22046 2.44062 9.13654 2.93887C8.932 4.14517 8.74843 4.49133 8.14528 4.78503C7.90402 4.90042 7.78339 4.92664 7.47919 4.92664C7.15926 4.9214 7.00716 4.87944 6.24667 4.58573C5.38652 4.25531 5.38128 4.25531 4.83058 4.25007C4.32183 4.25007 4.25365 4.26056 3.93896 4.41265C3.75015 4.50181 3.49316 4.68014 3.36204 4.8165C3.08406 5.09972 0.776359 9.04904 0.619016 9.52107C0.482651 9.91968 0.519365 10.5543 0.697688 10.9477C0.891744 11.3567 1.08056 11.5665 1.82532 12.1749C2.19245 12.4791 2.5491 12.7991 2.61728 12.8777C3.06833 13.4494 3.07882 14.2833 2.63301 14.8498C2.57532 14.9232 2.21343 15.2431 1.83056 15.5631C1.07007 16.1872 0.902234 16.376 0.702932 16.8008C0.519365 17.1942 0.482651 17.8288 0.613771 18.2274C0.671464 18.3848 1.25363 19.4547 1.91972 20.6033C3.23092 22.8795 3.36204 23.0579 3.93896 23.3358C4.25365 23.4879 4.32183 23.4984 4.83058 23.4984C5.38128 23.4932 5.38652 23.4932 6.24667 23.1627C7.00716 22.869 7.15926 22.8271 7.47919 22.8218C8.09283 22.8166 8.58584 23.126 8.8743 23.6925C8.94248 23.8236 9.04214 24.2589 9.13654 24.8096C9.30437 25.8219 9.37256 26.0474 9.59808 26.3778C9.81836 26.6977 10.0963 26.9233 10.4949 27.1121L10.8359 27.2747L13.3743 27.2904C14.9792 27.3009 16.0072 27.2851 16.1698 27.2537C16.8044 27.1173 17.3132 26.7187 17.6016 26.1313C17.7485 25.8219 17.8114 25.5858 17.9373 24.8306C18.1051 23.8026 18.2205 23.4984 18.5509 23.21C18.8656 22.9372 19.1698 22.8218 19.5946 22.8271C19.9198 22.8271 20.0667 22.869 20.8272 23.1627C21.6873 23.4932 21.6925 23.4932 22.2433 23.4984C22.752 23.4984 22.8202 23.4879 23.1349 23.3358C23.7065 23.0579 23.8429 22.8743 25.1436 20.6295C25.794 19.4966 26.3709 18.4739 26.4233 18.3585C26.4915 18.2064 26.5125 18.0071 26.5177 17.6243C26.5177 17.168 26.502 17.0631 26.3814 16.8113C26.1768 16.3865 26.0038 16.1924 25.2275 15.5526C24.4775 14.9284 24.2835 14.6924 24.1576 14.2781C24.0579 13.9477 24.0579 13.8008 24.1576 13.4704C24.2835 13.0508 24.488 12.8043 25.2275 12.1959C25.9933 11.5665 26.1768 11.362 26.3814 10.9372C26.502 10.6854 26.5177 10.5805 26.5177 10.1242C26.5125 9.74135 26.4915 9.54205 26.4233 9.38995C26.3709 9.27457 25.794 8.25184 25.1436 7.11896C23.8429 4.8742 23.7065 4.69063 23.1349 4.41265C22.8202 4.26056 22.752 4.25007 22.2433 4.25007C21.6925 4.25531 21.6873 4.25531 20.8272 4.58573C20.0667 4.87944 19.9146 4.9214 19.5946 4.92664C18.981 4.93189 18.488 4.62245 18.1995 4.05601C18.1366 3.93013 18.0317 3.48957 17.9373 2.94936C17.8586 2.45635 17.7485 1.94236 17.696 1.80075C17.5177 1.29725 17.0194 0.798999 16.4897 0.578719C16.2537 0.479068 16.0911 0.473823 13.6418 0.463333C12.2152 0.458089 10.9565 0.479068 10.8463 0.505292ZM15.7397 2.556C15.7397 2.56649 15.8079 2.97558 15.8971 3.47384C16.1226 4.77454 16.3796 5.34098 17.0457 5.98609C17.7852 6.70987 18.8604 7.10847 19.8307 7.0298C20.3394 6.98784 20.481 6.95113 21.446 6.59973C21.8866 6.43714 22.2537 6.31651 22.259 6.327C22.2695 6.33749 22.7677 7.19763 23.3656 8.23086C24.231 9.73611 24.4356 10.1295 24.3831 10.1767C24.3464 10.2081 24.0475 10.4546 23.7275 10.7221C22.9723 11.341 22.6681 11.6872 22.4058 12.2169C22.1121 12.7991 22.0177 13.2082 22.0177 13.8742C22.0177 14.5403 22.1121 14.9494 22.4058 15.5316C22.6681 16.0613 22.9723 16.4075 23.7275 17.0264C24.0475 17.2938 24.3464 17.5403 24.3831 17.5718C24.4356 17.619 24.2258 18.0176 23.3656 19.5176C22.7677 20.5508 22.2695 21.411 22.259 21.4215C22.2537 21.432 21.8866 21.3113 21.446 21.1488C20.481 20.7974 20.3394 20.7606 19.8307 20.7187C18.8604 20.64 17.7799 21.0439 17.0404 21.7571C16.3848 22.4023 16.1173 22.9792 15.8971 24.2746C15.8079 24.7729 15.7397 25.182 15.7397 25.1872C15.7397 25.1977 14.7485 25.203 13.5369 25.203C12.3254 25.203 11.3341 25.1977 11.3341 25.1872C11.3341 25.182 11.2659 24.7729 11.1768 24.2746C10.9565 22.9792 10.6995 22.4232 10.0386 21.7676C9.30437 21.0439 8.2187 20.64 7.24318 20.7187C6.73443 20.7606 6.59282 20.7974 5.62778 21.1488C5.18722 21.3113 4.82009 21.432 4.81484 21.4215C4.65225 21.2169 2.63826 17.6243 2.66448 17.598C2.68546 17.5771 2.98966 17.3253 3.33581 17.0368C4.07008 16.4284 4.34806 16.1295 4.61029 15.6575C4.92498 15.0963 5.05086 14.577 5.05086 13.8742C5.05086 13.1714 4.92498 12.6522 4.61029 12.091C4.34806 11.619 4.07008 11.32 3.33581 10.7116C2.98966 10.4232 2.68546 10.1714 2.66448 10.1504C2.63826 10.1242 4.65225 6.53155 4.81484 6.327C4.82009 6.31651 5.18722 6.43714 5.62778 6.59973C6.71345 6.99833 6.81835 7.01931 7.45297 7.02456C8.10856 7.02456 8.51241 6.93015 9.10507 6.63644C9.58235 6.40043 9.94424 6.12245 10.2956 5.70812C10.7729 5.14168 10.9984 4.57524 11.1768 3.48957C11.2345 3.12768 11.2974 2.77104 11.3131 2.68712L11.3446 2.54551H13.5422C14.7485 2.54551 15.7397 2.55076 15.7397 2.556Z" fill="#F57325"/>
<path d="M12.8813 8.7396C12.147 8.83401 11.2869 9.16443 10.6051 9.61548C10.2222 9.86723 9.52466 10.57 9.26242 10.9634C8.06661 12.7781 8.06661 14.9704 9.26242 16.7851C9.52466 17.1785 10.2222 17.8813 10.6051 18.133C12.6033 19.4494 15.0527 19.3341 16.8516 17.8393C18.4303 16.5333 19.0911 14.32 18.4827 12.3795C17.9006 10.5123 16.3691 9.1382 14.4915 8.7868C14.0614 8.70813 13.2852 8.68191 12.8813 8.7396ZM14.4548 10.9424C15.3726 11.2256 16.1803 12.0386 16.4845 12.9826C16.6366 13.4599 16.6366 14.2886 16.4845 14.7659C16.175 15.7204 15.3831 16.5124 14.4285 16.8166C13.946 16.9739 13.1698 16.9739 12.6715 16.8218C11.7012 16.5229 10.8988 15.7309 10.5893 14.7659C10.4372 14.2886 10.4372 13.4599 10.5946 12.9826C10.9565 11.8445 12.0054 10.9634 13.1698 10.8165C13.4792 10.7746 14.1243 10.8375 14.4548 10.9424Z" fill="#F57325"/>
</svg>
