<svg width="21" height="25" viewBox="0 0 21 17" fill="none" xmlns="http://www.w3.org/2000/svg">
    <path d="M1.92778 0.854696C1.02134 1.04747 0.254346 1.82267 0.0615723 2.73731C-0.0286621 3.16798 -0.0286621 13.832 0.0615723 14.2627C0.254346 15.1856 1.02544 15.9566 1.94829 16.1494C2.37895 16.2397 18.6211 16.2397 19.0518 16.1494C19.9747 15.9566 20.7458 15.1856 20.9385 14.2627C21.0288 13.832 21.0288 3.16798 20.9385 2.73731C20.7458 1.81446 19.9747 1.04337 19.0518 0.850595C18.6334 0.764462 2.33794 0.764462 1.92778 0.854696ZM18.2889 2.50352C18.2356 2.54864 16.4596 3.86524 14.3473 5.44024L10.5 8.29903L6.65688 5.44024C4.54048 3.86524 2.7645 2.54864 2.71118 2.50352C2.61685 2.4338 2.83423 2.4297 10.5 2.4297C18.1659 2.4297 18.3833 2.4338 18.2889 2.50352ZM6.09087 7.06446L10.5 10.3416L14.9092 7.06446C17.3333 5.25977 19.3266 3.78321 19.3389 3.78321C19.3512 3.78321 19.3553 6.08829 19.3512 8.90196L19.3389 14.0248L19.2282 14.1848C19.1666 14.2709 19.0477 14.3899 18.9616 14.4473L18.8098 14.5498H2.19028L2.03853 14.4473C1.95239 14.3899 1.83345 14.2709 1.77192 14.1848L1.66118 14.0248L1.64888 8.90196C1.64478 6.08829 1.64888 3.78321 1.66118 3.78321C1.67349 3.78321 3.66685 5.25977 6.09087 7.06446Z" fill="#9799C3"/>
    </svg>
    