<svg width="23" height="25" viewBox="0 0 23 14" fill="none" xmlns="http://www.w3.org/2000/svg">
    <path d="M10.9323 0.0259781C8.25294 0.241764 5.75342 1.3117 3.26289 3.31222C2.25588 4.12142 0.619508 5.78476 0.156467 6.47258C0.00811444 6.69286 -0.036841 6.94012 0.0305921 7.17838C0.156467 7.65041 2.22442 9.83075 3.58656 10.9232C8.7924 15.1085 14.5916 14.9017 20.0582 10.3387C20.8989 9.63744 22.6611 7.78528 22.8994 7.35371C22.9893 7.19187 23.0118 6.94012 22.9578 6.74231C22.8949 6.50405 22.2341 5.71284 21.2765 4.72831C19.4693 2.86716 17.7071 1.6174 15.7695 0.826184C14.277 0.214791 12.4068 -0.0954015 10.9323 0.0259781ZM12.6945 1.68034C13.3779 1.77025 13.778 1.85566 14.2949 2.0175C16.0842 2.57495 17.752 3.59544 19.4288 5.16438C19.9548 5.65439 20.8989 6.64341 21.0697 6.87718L21.1551 6.99407L20.4718 7.70436C18.9613 9.2778 17.5632 10.3343 15.9223 11.1434C14.4163 11.8897 13.1486 12.2314 11.6471 12.2988C8.55414 12.4337 5.38029 10.8288 2.45818 7.65491C2.12551 7.29527 1.84679 6.98058 1.8378 6.9581C1.81083 6.88617 3.74391 4.99805 4.31035 4.544C5.71745 3.42461 7.27291 2.55697 8.68001 2.10741C9.25095 1.9231 9.96124 1.76126 10.4378 1.70731C10.6625 1.68034 10.8918 1.64887 10.9548 1.63988C11.256 1.59942 12.2225 1.62189 12.6945 1.68034Z" fill="#9799C3"/>
    <path d="M10.7568 2.93912C9.87571 3.12344 9.11147 3.53703 8.52255 4.16191C8.0685 4.64293 7.71335 5.27681 7.52904 5.95114C7.38967 6.46812 7.38967 7.45714 7.52904 7.97413C7.64143 8.37873 7.91116 8.96764 8.13144 9.29132C8.64393 10.0421 9.54753 10.6715 10.4826 10.9277C10.9951 11.0671 11.9886 11.0671 12.5056 10.9277C13.9442 10.5366 15.0636 9.4172 15.4547 7.97413C15.5356 7.68192 15.5536 7.49311 15.5536 6.96263C15.5536 6.43216 15.5356 6.24335 15.4547 5.95114C15.0636 4.50807 13.9307 3.37519 12.5056 3.00206C12.0381 2.88068 11.1884 2.84921 10.7568 2.93912ZM12.0695 4.55752C12.5101 4.66092 12.8742 4.87221 13.2294 5.22735C14.2184 6.21637 14.2184 7.70889 13.2294 8.69791C13.0316 8.89572 12.8023 9.07104 12.6315 9.16095C11.6425 9.65996 10.4916 9.46665 9.72736 8.67993C8.78329 7.6999 8.78329 6.22536 9.72736 5.24534C10.3387 4.61596 11.2154 4.35522 12.0695 4.55752Z" fill="#9799C3"/>
    </svg>
    