<svg width="18" height="21" viewBox="0 0 18 21" fill="none" xmlns="http://www.w3.org/2000/svg">
    <path d="M12.2143 5.14286C12.2143 4.29038 11.8756 3.47281 11.2728 2.87001C10.67 2.26722 9.85248 1.92857 9 1.92857C8.14752 1.92857 7.32995 2.26722 6.72716 2.87001C6.12436 3.47281 5.78571 4.29038 5.78571 5.14286C5.78571 5.99534 6.12436 6.8129 6.72716 7.4157C7.32995 8.0185 8.14752 8.35714 9 8.35714C9.85248 8.35714 10.67 8.0185 11.2728 7.4157C11.8756 6.8129 12.2143 5.99534 12.2143 5.14286ZM3.85714 5.14286C3.85714 3.77889 4.39898 2.47078 5.36345 1.50631C6.32792 0.541835 7.63603 0 9 0C10.364 0 11.6721 0.541835 12.6365 1.50631C13.601 2.47078 14.1429 3.77889 14.1429 5.14286C14.1429 6.50683 13.601 7.81493 12.6365 8.77941C11.6721 9.74388 10.364 10.2857 9 10.2857C7.63603 10.2857 6.32792 9.74388 5.36345 8.77941C4.39898 7.81493 3.85714 6.50683 3.85714 5.14286ZM1.9808 18.6429H16.0192C15.6616 16.0996 13.4759 14.1429 10.8362 14.1429H7.16384C4.52411 14.1429 2.33839 16.0996 1.9808 18.6429ZM0 19.3781C0 15.4205 3.20625 12.2143 7.16384 12.2143H10.8362C14.7938 12.2143 18 15.4205 18 19.3781C18 20.0371 17.4656 20.5714 16.8067 20.5714H1.1933C0.534375 20.5714 0 20.0371 0 19.3781Z" fill="#9799C3"/>
    </svg>
    