<svg width="214" height="249" viewBox="0 0 214 249" fill="none" xmlns="http://www.w3.org/2000/svg">
    <path d="M104.293 2.66511C105.38 0.389621 108.62 0.389623 109.707 2.66511L130.199 45.5531C130.899 47.0164 132.634 47.6591 134.118 47.0043L172.711 29.97C174.876 29.0145 177.243 30.8243 176.889 33.1639L169.268 83.4699C169.064 84.8202 169.797 86.1382 171.052 86.6764L211.244 103.913C213.198 104.751 213.684 107.3 212.176 108.798L178.937 141.829C178.026 142.734 177.793 144.119 178.356 145.273L200.143 189.907C201.119 191.907 199.655 194.236 197.431 194.223L155.574 193.992C154.076 193.984 152.801 195.083 152.588 196.566L145.481 246.089C145.128 248.543 142.119 249.535 140.376 247.771L109.135 216.136C107.96 214.947 106.04 214.947 104.865 216.136L73.6235 247.771C71.881 249.535 68.8717 248.543 68.5194 246.089L61.4121 196.566C61.1993 195.083 59.9245 193.984 58.426 193.992L16.5695 194.223C14.3446 194.236 12.881 191.907 13.8569 189.907L35.6441 145.273C36.2075 144.119 35.9738 142.734 35.0628 141.829L1.82408 108.798C0.315975 107.3 0.802283 104.751 2.75628 103.913L42.9482 86.6764C44.2033 86.1382 44.9364 84.8202 44.7319 83.4699L37.1112 33.1639C36.7568 30.8243 39.1239 29.0145 41.2887 29.97L79.8824 47.0043C81.366 47.6591 83.1014 47.0164 83.8006 45.5531L104.293 2.66511Z" fill="#F57325"/>
    </svg>
    